[img]http://img573.imageshack.us/img573/4472/posterb.jpg[/img]
[CODE]

Big Mommas  Like Father Like Son 2011 New Source TS XViD - IMAGiNE

********************************************************************************************************************



Ripper ...........:IMAGiNE                                          IMDB Rating.......:2.7/10                             

Video Codec.......:XVID                                             Release Date......:22/02/11

Audio Codec.......:MP3                                              Theatre Date......:20/02/11

Audio Bitrate.....:128                                              Runtime...........:1h 42mn

Subtitles.........:NIL                                              Language..........:ENGLISH

Resolution........:720 x 288                                        IMDb URL.......... http://www.imdb.com/title/tt1464174/





DETAILS:



Video

ID                               : 0

Format                           : MPEG-4 Visual

Format profile                   : Advanced Simple@L5

Format settings, BVOP            : Yes

Format settings, QPel            : No

Format settings, GMC             : No warppoints

Format settings, Matrix          : Default (MPEG)

Muxing mode                      : Packed bitstream

Codec ID                         : XVID

Codec ID/Hint                    : XviD

Duration                         : 1h 42mn

Bit rate                         : 1 782 Kbps

Width                            : 720 pixels

Height                           : 288 pixels

Display aspect ratio             : 2.500

Frame rate                       : 25.000 fps

Resolution                       : 24 bits

Colorimetry                      : 4:2:0

Scan type                        : Progressive

Bits/(Pixel*Frame)               : 0.344

Stream size                      : 1.28 GiB (93%)

Writing library                  : XviD 61



Audio

ID                               : 1

Format                           : MPEG Audio

Format version                   : Version 1

Format profile                   : Layer 3

Codec ID                         : 55

Codec ID/Hint                    : MP3

Duration                         : 1h 42mn

Bit rate mode                    : Constant

Bit rate                         : 128 Kbps

Channel(s)                       : 2 channels

Sampling rate                    : 44.1 KHz

Resolution                       : 16 bits

Stream size                      : 94.3 MiB (7%)

Alignment                        : Split accross interleaves

Interleave, duration             : 40 ms (1.00 video frame)

Interleave, preload duration     : 500 ms





SOURCES:



VIDEO:  CiNEDUB...Thanks ,TaRiQ786 720p files...Thanks  

AUDIO:  Thanks matey  , TaRiQ786 720p files...Thanks  



NOTES:



IMAGiNE bringing you another release.......... Big Mommas 2011 v2

Plot:FBI agent Malcolm Turner and his stepson Trent go undercover at an all-girls performing arts school after Trent witnesses a murder.


Ok guys here we go with a new source ......alot better Q we think and also alot less cropped 

Right to make this complete we had to mux 20 secs of cam audio on the very begining,we had to cut 1min off the

other release and append it to the new video @ 55mins where the new source camera was shaking and lost some video.

The rest of the audio was taken off our first release and resynced to theis new video.

Now the new video source is sweet for a cam...alittle bright,but if you tone it down more the dark scenes are then too dark so 

we played it safe 

Oh also due to having to cut the file up and resize,there might be some slight change in AR,but nothing major at all 


Anyway enjoy folks ....

[/CODE]
Screens:
[img]http://img255.imageshack.us/img255/1088/44680760.jpg[/img]
[img]http://img191.imageshack.us/img191/4107/39271676.jpg[/img]
[img]http://img151.imageshack.us/img151/5373/21549023.jpg[/img]
